<svg xmlns="http://www.w3.org/2000/svg" xmlns:xlink="http://www.w3.org/1999/xlink" width="965.094" height="944.512" viewBox="0 0 965.094 944.512">
  <defs>
    <linearGradient id="linear-gradient" x1="0.612" y1="0.368" x2="0.408" y2="0.555" gradientUnits="objectBoundingBox">
      <stop offset="0" stop-color="#78b46a"/>
      <stop offset="0.03" stop-color="#7f3500"/>
      <stop offset="1" stop-color="#fff"/>
    </linearGradient>
    <linearGradient id="linear-gradient-2" x1="0.822" y1="0.285" x2="0.299" y2="0.625" xlink:href="#linear-gradient"/>
    <linearGradient id="linear-gradient-3" x1="0.807" y1="0.219" x2="0.216" y2="0.666" xlink:href="#linear-gradient"/>
    <linearGradient id="linear-gradient-4" x1="0.81" y1="0.606" x2="0.675" y2="0.553" gradientUnits="objectBoundingBox">
      <stop offset="0" stop-color="#fff" stop-opacity="0"/>
      <stop offset="0.99" stop-color="#dc841e"/>
    </linearGradient>
    <linearGradient id="linear-gradient-5" x1="0.822" y1="0.275" x2="0.299" y2="0.623" xlink:href="#linear-gradient"/>
  </defs>
  <g id="Group_1" data-name="Group 1" transform="translate(-275.737 -53.488)">
    <g id="bg-pattern-desktop" transform="translate(275.306 53)" opacity="0.099">
      <path id="Path_1" data-name="Path 1" d="M468.755,937.353,19.744,671.73C5.449,663.683-6.8,650.5,7.124,641.852L457.734,381.89c6.754-4.194,17.018-6.946,23.9-2.936L952.9,652.781c14.3,8.308,16.861,31.45,2.619,39.837l-427.6,244.315a59.64,59.64,0,0,1-59.17.42Z" fill="#6862e6"/>
      <path id="Path_2" data-name="Path 2" d="M468.755,561.353,19.744,295.73C5.449,287.683-6.8,274.5,7.124,265.852L457.734,5.89c6.754-4.194,17.018-6.946,23.9-2.936L952.9,276.781c14.3,8.308,16.861,31.45,2.619,39.837l-427.6,244.315a59.64,59.64,0,0,1-59.17.42Z" fill="none" stroke="#1e1f36" stroke-width="1"/>
      <path id="Path_3" data-name="Path 3" d="M468.755,636.353,19.744,370.73C5.449,362.683-6.8,349.5,7.124,340.852L457.734,80.89c6.754-4.194,17.018-6.946,23.9-2.936L952.9,351.781c14.3,8.308,16.861,31.45,2.619,39.837l-427.6,244.315a59.64,59.64,0,0,1-59.17.42Z" fill="none" stroke="#1e1f36" stroke-width="1"/>
    </g>
    <g id="illustration-woman-online-desktop" transform="translate(764.165 396.952)">
      <path id="Path_9" data-name="Path 9" d="M229.018,355.2,9.313,225.211c-6.995-3.938-12.99-10.39-6.175-14.622L223.625,83.367c3.3-2.052,8.327-3.4,11.7-1.437l230.6,134.007c6.994,4.066,8.25,15.392,1.28,19.5L257.972,355a29.178,29.178,0,0,1-28.953.2Z" fill="#5b36a0"/>
      <path id="Path_10" data-name="Path 10" d="M229.018,349.2,9.313,219.211c-6.995-3.938-12.99-10.39-6.175-14.622L223.625,77.367c3.3-2.052,8.327-3.4,11.7-1.437l230.6,134.007c6.994,4.066,8.25,15.392,1.28,19.5L257.972,349a29.178,29.178,0,0,1-28.953.205Z" fill="#6862e6"/>
      <path id="Path_11" data-name="Path 11" d="M247.133,177.693,203.78,202.46s66.783,40.8,80.439,46.546l24.968-35.913" opacity="0.25" fill="url(#linear-gradient)"/>
      <path id="Path_12" data-name="Path 12" d="M232.157,296.513,188.792,271.8l-43.364,24.767s22.585,13.8,44.171,26.473C203.307,313.328,217.027,303.517,232.157,296.513Z" opacity="0.25" fill="url(#linear-gradient-2)"/>
      <path id="Path_13" data-name="Path 13" d="M138.728,143.883l-27.5,15.712s2.331,14.4,15.988,20.15l36.01-23.087" opacity="0.46" fill="url(#linear-gradient-3)"/>
      <ellipse id="Ellipse_1" data-name="Ellipse 1" cx="16.59" cy="11.697" rx="16.59" ry="11.697" transform="translate(135.602 136.201)" fill="#68e1fd"/>
      <ellipse id="Ellipse_2" data-name="Ellipse 2" cx="12.426" cy="5.092" rx="12.426" ry="5.092" transform="translate(139.753 135.905)" fill="#974c26"/>
      <path id="Path_14" data-name="Path 14" d="M151.73,132.506c0-2.3-.076-4.591-.256-6.887q-.076-.9-.166-1.783l-.128-1.167a6.92,6.92,0,0,0-.18-1.193q-.115-.705-.243-1.4a54.855,54.855,0,0,0-8.865-21.715,31.778,31.778,0,0,0-2.473,12.71c0,1.284.1,2.566.2,3.772v.757c.1.615.218,1.282.346,1.846a50.223,50.223,0,0,0,1.96,6.888,41.927,41.927,0,0,0,2.678,6q1.7,3.255,3.676,6.349,1.427,2.256,2.985,4.425a83.642,83.642,0,0,0,.461-8.607Zm-6.52-25.819a2.067,2.067,0,0,0,0-.9q.474.486.935,1a2.84,2.84,0,0,0-.948-.1Z" fill="#999a1c"/>
      <path id="Path_15" data-name="Path 15" d="M156,134.276a65.013,65.013,0,0,0,3.5-5.938q.423-.795.82-1.59l.525-1.065.5-1.1.55-1.283a54.876,54.876,0,0,0,4.266-23.087,31.728,31.728,0,0,0-8.967,9.363q-1,1.6-1.858,3.284l-.256.474-.064.206c-.243.577-.487,1.154-.717,1.744a50.22,50.22,0,0,0-2.063,6.862,41.952,41.952,0,0,0-.986,6.5q-.339,3.652-.333,7.323c0,1.911,0,3.656.115,5.336,1.7-2.27,3.42-4.6,4.97-7.029Zm8.456-25.254a2.07,2.07,0,0,0,.435-.783q.141.667.244,1.283a2.829,2.829,0,0,0-.68-.5Z" fill="#999a1c"/>
      <path id="Path_16" data-name="Path 16" d="M155.907,140q1.956-.974,3.843-2.078l.96-.59.629-.4.615-.436.717-.526a34.464,34.464,0,0,0,9.736-11.069,19.928,19.928,0,0,0-7.84,2.168c-.705.36-1.384.757-2.063,1.167l-.294.18-.1.09-.948.705a31.543,31.543,0,0,0-3.33,3.04,26.349,26.349,0,0,0-2.627,3.193q-1.334,1.888-2.562,3.848-.87,1.437-1.653,2.925c1.653-.693,3.306-1.411,4.92-2.22Zm12.708-10.9a1.28,1.28,0,0,0,.487-.283c-.094.274-.2.543-.308.808a1.8,1.8,0,0,0-.179-.513Zm-16.885,3.411c0-2.3-.076-4.591-.256-6.887q-.076-.9-.166-1.783l-.128-1.167a6.92,6.92,0,0,0-.18-1.193q-.115-.705-.243-1.4a54.855,54.855,0,0,0-8.865-21.715,31.778,31.778,0,0,0-2.473,12.71c0,1.284.1,2.566.2,3.772v.757c.1.615.218,1.282.346,1.846a50.223,50.223,0,0,0,1.96,6.888,41.927,41.927,0,0,0,2.678,6q1.7,3.255,3.676,6.349,1.427,2.256,2.985,4.425a83.642,83.642,0,0,0,.461-8.607Zm-6.52-25.819a2.067,2.067,0,0,0,0-.9q.474.486.935,1a2.84,2.84,0,0,0-.948-.1Z" fill="#999a1c"/>
      <path id="Path_17" data-name="Path 17" d="M156,134.276a65.013,65.013,0,0,0,3.5-5.938q.423-.795.82-1.59l.525-1.065.5-1.1.55-1.283a54.876,54.876,0,0,0,4.266-23.087,31.728,31.728,0,0,0-8.967,9.363q-1,1.6-1.858,3.284l-.256.474-.064.206c-.243.577-.487,1.154-.717,1.744a50.22,50.22,0,0,0-2.063,6.862,41.952,41.952,0,0,0-.986,6.5q-.339,3.652-.333,7.323c0,1.911,0,3.656.115,5.336,1.7-2.27,3.42-4.6,4.97-7.029Zm8.456-25.254a2.07,2.07,0,0,0,.435-.783q.141.667.244,1.283a2.829,2.829,0,0,0-.68-.5Z" fill="#999a1c"/>
      <path id="Path_18" data-name="Path 18" d="M155.907,140q1.956-.974,3.843-2.078l.96-.59.629-.4.615-.436.717-.526a34.464,34.464,0,0,0,9.736-11.069,19.928,19.928,0,0,0-7.84,2.168c-.705.36-1.384.757-2.063,1.167l-.294.18-.1.09-.948.705a31.543,31.543,0,0,0-3.33,3.04,26.349,26.349,0,0,0-2.627,3.193q-1.334,1.888-2.562,3.848-.87,1.437-1.653,2.925c1.653-.693,3.306-1.411,4.92-2.22Zm12.708-10.9a1.28,1.28,0,0,0,.487-.283c-.094.274-.2.543-.308.808a1.8,1.8,0,0,0-.179-.513Z" fill="#999a1c"/>
      <path id="Path_19" data-name="Path 19" d="M264.35,168.022l-23.994,11.543a5.53,5.53,0,0,0-.384,9.76l56.867,33.22a5.518,5.518,0,0,0,7.43-1.782l13.823-21.523" fill="#a1482d"/>
      <path id="Path_20" data-name="Path 20" d="M394.854,112.344,203.524,1.962a8.634,8.634,0,0,0-12.938,7.49V124.285a7.184,7.184,0,0,0,3.588,6.221L398.146,248.39a4.625,4.625,0,0,0,6.944-4.015V130.018a20.4,20.4,0,0,0-10.236-17.674Z" fill="#f47b56"/>
      <path id="Path_21" data-name="Path 21" d="M203.537,10.646l185.552,106.88a13.034,13.034,0,0,1,6.52,11.286v86.076a4.7,4.7,0,0,1-7.032,4.079L199.348,110.3a4.643,4.643,0,0,1-2.331-4.027V14.429a4.356,4.356,0,0,1,6.521-3.783Z" fill="#fff"/>
      <ellipse id="Ellipse_3" data-name="Ellipse 3" cx="4.036" cy="4.617" rx="4.036" ry="4.617" transform="translate(275.903 164.693) rotate(-10.9)" fill="#ab643c"/>
      <path id="Path_22" data-name="Path 22" d="M253.41,127.427,339.64,179.3l42.6-24.793L306.126,110.15" opacity="0.32" fill="url(#linear-gradient-4)"/>
      <path id="Path_23" data-name="Path 23" d="M359.97,117.1l-93.224-56.91A3.23,3.23,0,0,0,261.9,63.1V95.53a3.4,3.4,0,0,0,1.627,2.924l93.212,55.7a3.216,3.216,0,0,0,4.8-2.81l.487-30.23a4.542,4.542,0,0,0-2.063-4.015Z" fill="#e2ac00"/>
      <path id="Path_24" data-name="Path 24" d="M337.667,133.789c3.343,4.681,9.223,5.99,13.118,2.937s4.343-9.324,1-13.993-9.225-5.99-13.12-2.937-4.342,9.311-1,13.993Z" fill="#fff"/>
      <path id="Path_25" data-name="Path 25" d="M328.52,111.318,290.5,88.4a1.449,1.449,0,0,0-1.46,2.488l38.022,22.92a1.449,1.449,0,0,0,1.461-2.488Zm-1.563,9.312-52.41-31.591a1.45,1.45,0,0,0-1.4,2.488l52.345,31.6a1.449,1.449,0,0,0,1.461-2.488v-.013Z" fill="#f2f2f2"/>
      <path id="Path_26" data-name="Path 26" d="M341.369,123.387,248.2,66.49a3.23,3.23,0,0,0-4.843,2.912v32.411a3.4,3.4,0,0,0,1.615,2.938l93.211,55.7A3.216,3.216,0,0,0,343,157.581l.487-30.23a4.542,4.542,0,0,0-2.114-3.964Z" fill="#f47b56"/>
      <path id="Path_27" data-name="Path 27" d="M319.065,140.074c3.344,4.681,9.224,5.99,13.119,2.937s4.342-9.325,1-13.993-9.224-5.99-13.118-2.938-4.343,9.312-1,13.994Z" fill="#fff"/>
      <path id="Path_28" data-name="Path 28" d="M309.918,117.6,271.87,94.682a1.449,1.449,0,0,0-1.46,2.488l38.022,22.92a1.449,1.449,0,0,0,1.461-2.488Zm-1.575,9.376-52.4-31.642a1.449,1.449,0,0,0-1.46,2.489l52.409,31.59a1.449,1.449,0,0,0,1.46-2.488l-.012.051Z" fill="#f2f2f2"/>
      <path id="Path_29" data-name="Path 29" d="M317.99,127.21l-93.2-56.9a3.228,3.228,0,0,0-4.842,2.911v32.412a3.4,3.4,0,0,0,1.627,2.924l93.211,55.7a3.216,3.216,0,0,0,4.817-2.873l.487-30.231a4.542,4.542,0,0,0-2.1-3.95Z" fill="#68e1fd"/>
      <path id="Path_30" data-name="Path 30" d="M317.99,127.21l-93.2-56.9a3.228,3.228,0,0,0-4.842,2.911v32.412a3.4,3.4,0,0,0,1.627,2.924l93.211,55.7a3.216,3.216,0,0,0,4.817-2.873l.487-30.231a4.542,4.542,0,0,0-2.1-3.95Z" fill="#68e1fd"/>
      <path id="Path_31" data-name="Path 31" d="M295.673,143.9c3.343,4.681,9.224,5.99,13.118,2.937s4.343-9.325,1-13.993-9.225-5.99-13.119-2.937-4.3,9.311-1,13.993Z" fill="#fff"/>
      <path id="Path_32" data-name="Path 32" d="M286.526,121.425l-38.035-22.92a1.449,1.449,0,0,0-1.461,2.488l38.023,22.92a1.449,1.449,0,0,0,1.46-2.488Zm-1.576,9.325L232.541,99.158a1.449,1.449,0,0,0-1.46,2.489l52.409,31.59a1.449,1.449,0,0,0,1.46-2.488Z" fill="#f2f2f2"/>
      <path id="Path_33" data-name="Path 33" d="M195.672,124.028a45.406,45.406,0,0,0-13.208,19.38c-4.638,12.827,6.956,33.784,6.956,33.784l18.038-14.3" fill="#ff8f6f"/>
      <path id="Path_34" data-name="Path 34" d="M193.724,293.6l-4.893-2.706,1.28-7s7.29.692,7.93,3.283" fill="#003b94"/>
      <path id="Path_35" data-name="Path 35" d="M195.518,293.5c1.1-.68,2.255-1.283,3.4-1.886,2.83-1.552,6.918-3.155,8.66-6.067a3.39,3.39,0,0,0-.23-3.848c-2.563-3.1-8.174,2-11.044-1.436-.563-.68-.832-11.467-.832-11.467l-10.915,2.95s-1.845,21.676-1.64,23.01,3.959,2.566,3.959,2.566a9.666,9.666,0,0,0,3.151-1.283c1.14-.834.1-11.005,1.563-9.581s2.1,6.99,2.1,6.99a7.448,7.448,0,0,0,1.833.051Z" fill="#f47b56"/>
      <path id="Path_36" data-name="Path 36" d="M214.568,304.08l-4.894-2.667,1.28-7s7.29.693,7.93,3.283" fill="#003b94"/>
      <path id="Path_37" data-name="Path 37" d="M216.412,303.978c1.1-.68,2.255-1.282,3.4-1.885,2.831-1.552,6.918-3.155,8.66-6.067a3.39,3.39,0,0,0-.23-3.848c-2.563-3.1-8.174,2-11.043-1.436-.564-.68-.833-11.467-.833-11.467l-10.915,2.95s-1.857,21.753-1.652,23.036,3.958,2.565,3.958,2.565a9.666,9.666,0,0,0,3.152-1.283c1.14-.833.1-11,1.563-9.58s2.1,6.99,2.1,6.99a7.5,7.5,0,0,0,1.845.025Z" fill="#f47b56"/>
      <path id="Path_38" data-name="Path 38" d="M179.005,233.614l-3.216,43.058s5.125,7.08,22.3,3.142l.166-29.026m.59-8.644c-.372,3.706,0,44.6,0,44.6s4.752,8.9,25.442,0L224,251.994" fill="#3e2928"/>
      <path id="Path_39" data-name="Path 39" d="M177.4,247.838c1.41.975,1.9-4.04,3.37-3.18a83.77,83.77,0,0,0,16.961,7.49h.128a1.165,1.165,0,0,1,1.576.577,89.583,89.583,0,0,0,11.133,2.565c4.83.77,8.826-2.808,13.784-3.052,0-19.008.09-73.109-7.994-84.652l-23.918-8.055c-.115,1.975-11.606,15.314-11.325,31.578.32,18.328-2.062,35.618-2.472,41.351-.064.975-1.191,14.34-1.243,15.378Z" fill="#3e2928"/>
      <path id="Path_40" data-name="Path 40" d="M218.564,145.73l-2.2,21.8s-17.845.719-25.532-4.591v-18.5" fill="#ff8f6f"/>
      <path id="Path_41" data-name="Path 41" d="M241.252,131.378l-1.819,2.488a59.684,59.684,0,0,0,2.562-6.22c.513-1.45-1.806-2.027-2.318-.578l-.27.744q.335-1.155.628-2.322a1.195,1.195,0,1,0-2.319-.577q-.754,3.019-1.806,5.952a42.536,42.536,0,0,0,.846-5.26c.154-1.525-2.242-1.461-2.383,0a37.917,37.917,0,0,1-1.076,5.965,11.133,11.133,0,0,0-.192-2.052,1.206,1.206,0,0,0-.5-.86q-.1-.4-.23-.795a1.2,1.2,0,0,0-2.345.36l-.154,8.978a10.727,10.727,0,0,1-1.678,2.565,41.639,41.639,0,0,1,3.331,2.565,34.339,34.339,0,0,1,2.716,2.565q1.149-1.431,2.216-2.924a1.249,1.249,0,0,0,.23-.257q3.2-4.742,6.611-9.337C244.25,131.326,242.162,130.159,241.252,131.378Z" fill="#ffb5a9"/>
      <path id="Path_42" data-name="Path 42" d="M207.24,125.85s8.43,2.27,11.85,7.695a96.552,96.552,0,0,1,5.65,11.66l6.225-9.685s7.559,2.322,10.556,6.042c0,0-8.967,19.623-16.782,21.3s-16.116-11.518-16.116-11.518-1.716,5.515-1.383-.372" fill="#ff8f6f"/>
      <path id="Path_43" data-name="Path 43" d="M212.6,146.82a17.1,17.1,0,0,1-5.342-7.618c-1.013-3.45.256-6.478,1.434-9.684a31.237,31.237,0,0,0,2.2-9.966c.1-3.36-.282-6.72-.513-10.069a.976.976,0,0,1,0-.436c-1.127-3.783-3.433-6.99-7.98-7.375-11.774-1-12.44,12.057-12.35,17.367s.653,8.9-3.254,11.12-6.726,8.042-3,12.75.384,2.988-2.1,7.169-1.845,9.4,3.254,11.287,28.8-1.655,30.976-3.848a4.531,4.531,0,0,0,1.115-3.206,12.444,12.444,0,0,0-4.445-7.49Z" fill="#007f68"/>
      <path id="Path_44" data-name="Path 44" d="M224.176,39.132a18.8,18.8,0,0,1,3.33,9.748,6.419,6.419,0,0,1-1.088,4.553,2.624,2.624,0,0,1-3.178.552,4.906,4.906,0,0,1-1.716-1.154,5.989,5.989,0,0,1-1.1-1.4l-.307-.6a2.13,2.13,0,0,1-.308.436,2.24,2.24,0,0,1-1.05.449,3.186,3.186,0,0,1-1.9-.231A7.113,7.113,0,0,1,213.5,48.47a9.692,9.692,0,0,1-1.486-4.861,4.775,4.775,0,0,1,1.192-3.848,2.739,2.739,0,0,1,3.113-.488,4.623,4.623,0,0,1,1.4.873,5.344,5.344,0,0,1,.922,1.013l.23.41V40.428l2.563,1,.256,7.209a2.816,2.816,0,0,0,.462,1.449,2.237,2.237,0,0,0,1.05.936q1.857.732,1.717-3.206a13.889,13.889,0,0,0-2.473-7.247,12.136,12.136,0,0,0-5.675-4.848,4.774,4.774,0,0,0-5.33.68,7.252,7.252,0,0,0-2.062,5.925,15.3,15.3,0,0,0,2.562,7.7,11.817,11.817,0,0,0,5.47,5.13,6.445,6.445,0,0,0,2.563.5,3.417,3.417,0,0,0,1.665-.307l.513-.283,1.55,2.886-.257.18a6.136,6.136,0,0,1-.755.359,4.973,4.973,0,0,1-1.282.36,6.4,6.4,0,0,1-1.7,0,8.575,8.575,0,0,1-2.165-.552,14.093,14.093,0,0,1-5.125-3.771,22.36,22.36,0,0,1-3.971-6.208,19.027,19.027,0,0,1-1.64-6.888,11.067,11.067,0,0,1,1.179-5.784,6.51,6.51,0,0,1,3.638-3.207,7,7,0,0,1,5.047.257,16.288,16.288,0,0,1,7.508,6.438Zm-5.65,9.12a2.567,2.567,0,0,0,.525-1.9,4.9,4.9,0,0,0-.679-2.372,3.255,3.255,0,0,0-1.55-1.411,1.4,1.4,0,0,0-1.576.2,2.35,2.35,0,0,0-.563,1.86,4.789,4.789,0,0,0,.73,2.385,3.447,3.447,0,0,0,1.627,1.463,1.28,1.28,0,0,0,1.486-.231M375.433,178.013a18.74,18.74,0,0,1,3.33,9.748,6.419,6.419,0,0,1-1.088,4.553,2.637,2.637,0,0,1-3.177.552,5.046,5.046,0,0,1-1.717-1.154,6.208,6.208,0,0,1-1.1-1.4l-.307-.6a2.506,2.506,0,0,1-.308.436,2.185,2.185,0,0,1-1.05.449,3.071,3.071,0,0,1-1.883-.218,7.113,7.113,0,0,1-3.357-3.027,9.653,9.653,0,0,1-1.5-4.874,4.724,4.724,0,0,1,1.192-3.848,2.726,2.726,0,0,1,3.1-.487,4.576,4.576,0,0,1,1.4.872,5.486,5.486,0,0,1,.923,1.026l.243.41v-1.141l2.562.987.257,7.209a2.91,2.91,0,0,0,.46,1.449,2.249,2.249,0,0,0,1.051.936c1.281.488,1.807-.577,1.73-3.206a13.953,13.953,0,0,0-2.473-7.26,12.161,12.161,0,0,0-5.662-4.835,4.787,4.787,0,0,0-5.33.667,7.252,7.252,0,0,0-2.01,5.964,15.25,15.25,0,0,0,2.561,7.7,11.868,11.868,0,0,0,5.535,4.964,6.668,6.668,0,0,0,2.562.513,3.545,3.545,0,0,0,1.665-.308l.513-.282,1.55,2.886-.256.18a6.133,6.133,0,0,1-.756.359,5.662,5.662,0,0,1-1.281.359,6.526,6.526,0,0,1-1.717,0,8.549,8.549,0,0,1-2.152-.564,14.093,14.093,0,0,1-5.125-3.759,22.41,22.41,0,0,1-3.97-6.22,18.988,18.988,0,0,1-1.64-6.888,11,11,0,0,1,1.178-5.772,6.562,6.562,0,0,1,3.638-3.219,7.09,7.09,0,0,1,5.06.257,16.315,16.315,0,0,1,7.354,6.592Zm-5.65,9.12a2.567,2.567,0,0,0,.538-1.9,4.866,4.866,0,0,0-.691-2.372,3.2,3.2,0,0,0-1.538-1.411,1.4,1.4,0,0,0-1.575.192,2.323,2.323,0,0,0-.577,1.86,4.769,4.769,0,0,0,.73,2.373,3.478,3.478,0,0,0,1.627,1.475,1.28,1.28,0,0,0,1.486-.218" fill="#f47b56"/>
      <path id="Path_45" data-name="Path 45" d="M120.139,232.7,76.774,208,33.423,232.754s24.122,15.083,45.709,27.756c13.707-9.7,25.89-20.791,41.007-27.807Z" opacity="0.25" fill="url(#linear-gradient-5)"/>
    </g>
  </g>
</svg>
