<svg xmlns="http://www.w3.org/2000/svg" xmlns:xlink="http://www.w3.org/1999/xlink" width="369.928" height="439.931" viewBox="0 0 369.928 439.931">
  <defs>
    <filter id="Union_1" x="0" y="0" width="369.928" height="439.931" filterUnits="userSpaceOnUse">
      <feOffset input="SourceAlpha"/>
      <feGaussianBlur stdDeviation="10" result="blur"/>
      <feFlood flood-color="#e91010" flood-opacity="0.851"/>
      <feComposite operator="in" in2="blur"/>
      <feComposite in="SourceGraphic"/>
    </filter>
  </defs>
  <g transform="matrix(1, 0, 0, 1, 0, 0)" filter="url(#Union_1)">
    <path id="Union_1-2" data-name="Union 1" d="M200.168,476,180.78,386.134l-5.764-27.248-10.48,27.248L117.9,476h-1.572L69.954,386.134,57.9,358.886l-5.5,27.248L34.584,476H5.5L45.326,283.43H48.47l52.924,104.014,15.72,34.846,15.719-34.846,46.241-92.715q-2.906,1.075-6.248,2.132a106.706,106.706,0,0,1-32.351,5.051q-31.122,0-53.917-13.923a92.651,92.651,0,0,1-34.808-37.265q-12.012-23.341-12.012-51.461,0-29.757,12.968-53.235A93.046,93.046,0,0,1,89.152,109.31q23.478-13.241,53.235-13.241a103.949,103.949,0,0,1,24.979,2.867,100.337,100.337,0,0,1,19.247,6.552q7.644,3.686,10.1,6.142l-13.377,27.3q-16.654-14.742-43.407-14.742A64.462,64.462,0,0,0,105.8,133.47q-15.287,9.283-24.024,26.481t-8.736,39.858q0,20.748,7.781,37.674a62.354,62.354,0,0,0,22.8,26.754q15.016,9.828,35.763,9.828a86.268,86.268,0,0,0,40.91-10.516v-86.2h51.051q43.134,0,57.33,14.469a48.074,48.074,0,0,1,14.2,34.943,57.447,57.447,0,0,1-6.006,25.8,38.346,38.346,0,0,1-19.11,18.155q19.382,4.914,28.528,17.2t9.146,28.938q0,17.473-5.46,30.577T287.31,369.264Q270.111,378,237.624,378h-29.7l21.066,98Zm10.156-123.662h31.4q24.843,0,33.442-9.965t8.6-25.252q0-14.469-9.828-22.387t-29.757-7.916H210.324Zm0-89.817h25.935q19.383,0,27.573-9.418t8.19-23.888q0-25.935-37.129-25.934h-24.57Z" transform="translate(24.5 -66.07)" fill="#6f6f6f"/>
  </g>
</svg>
